<?xml version="1.0" encoding="UTF-8"?>
<svg id="Layer_1" data-name="Layer 1" xmlns="http://www.w3.org/2000/svg" viewBox="0 0 182.89 183.11">
  <defs>
    <style>
      .cls-1 {
        fill: none;
      }

      .cls-2 {
        fill: #808080;
      }

      .cls-3 {
        fill: #808080;
      }

      .cls-4 {
        fill: #fff;
      }
    </style>
  </defs>
  <g>
    <path class="cls-1" d="M174.37,44.27v92.37c.08-1.04.14-2.1.14-3.16V47.43c0-1.07-.05-2.12-.14-3.16Z" />
    <path class="cls-3"
      d="M162.94,19.67L20.86,161.26c7.07,7,16.79,11.33,27.52,11.33h87.02c20.53,0,37.36-15.83,38.97-35.94V44.27c-.77-9.59-4.99-18.21-11.43-24.59Z" />
    <path class="cls-2"
      d="M135.4,8.32H48.38c-21.6,0-39.11,17.51-39.11,39.11v86.05c0,10.87,4.44,20.7,11.59,27.78L162.94,19.67c-7.07-7.01-16.8-11.35-27.54-11.35Z" />
  </g>
  <path class="cls-4"
    d="M164.91,82.6l-.43,13.95-36.39,39.55c15.2,0,24.84-.15,30.4-.46-1.61,7.51-2.92,13.64-4.24,22.84-7.31-.62-18.7-.77-30.11-.77-12.71,0-23.82.15-32.73.77l.3-14.11,36.39-39.39c-15.93,0-21.78.15-28.35.3,1.46-7.05,2.48-14.87,3.5-22.69,11.54.46,16.07.61,31.13.61,13.88,0,21.77-.15,30.54-.61Z" />
  <path class="cls-4"
    d="M59.51,36.93c-.1-.36-1.09-1.2-1.67-1-.85.67-1.46,1.24-1.67,2.36-.31,1.63-.21,16.44.28,17.15,1.12,1.61,26.06-.56,28.26,3.99,1.16,2.4-2.02,9.03-3.13,11.65-4.94,11.68-13.89,26.07-21.52,36.23-1.62,2.16-4.61,8.23-7.3,5.35-4.6-7.77-11.51-15.17-15.52-23.24-.72-1.45-3.16-5.82.45-5.82h15.11c.57,3.55-2.07,10.31,3.36,9.4v-12.76c-5.47-2.25-20.56,1.37-24.52-2-3.2-2.73-8.6-18.1-9.05-22.51-3.78-37.37,44.64-49.88,60.55-19.59,2.13,4.05,5.83,12.1.35,14.7-4.01,1.9-17.97,2.67-22.3,1.87-.56-.1-1.68-.53-1.68-1.01,0-3.18.64-12.54,0-14.77Z" />
  <rect class="cls-4" x="86.91" y="-19.69" width="1.63" height="225.94"
    transform="translate(91.65 -34.71) rotate(45)" />
</svg>